<svg width="446" height="114" viewBox="0 0 446 114" fill="none" xmlns="http://www.w3.org/2000/svg">
<path d="M133.4 28.456C138.728 28.456 143.384 29.512 147.368 31.624C151.352 33.736 154.424 36.712 156.584 40.552C158.792 44.344 159.896 48.736 159.896 53.728C159.896 58.672 158.792 63.064 156.584 66.904C154.424 70.744 151.328 73.72 147.296 75.832C143.312 77.944 138.68 79 133.4 79H114.464V28.456H133.4ZM132.608 68.344C137.264 68.344 140.888 67.072 143.48 64.528C146.072 61.984 147.368 58.384 147.368 53.728C147.368 49.072 146.072 45.448 143.48 42.856C140.888 40.264 137.264 38.968 132.608 38.968H126.776V68.344H132.608ZM185.065 79.576C181.129 79.576 177.577 78.736 174.409 77.056C171.289 75.376 168.817 72.976 166.993 69.856C165.217 66.736 164.329 63.088 164.329 58.912C164.329 54.784 165.241 51.16 167.064 48.04C168.889 44.872 171.385 42.448 174.553 40.768C177.721 39.088 181.273 38.248 185.209 38.248C189.145 38.248 192.697 39.088 195.865 40.768C199.033 42.448 201.529 44.872 203.353 48.04C205.177 51.16 206.089 54.784 206.089 58.912C206.089 63.04 205.153 66.688 203.281 69.856C201.457 72.976 198.937 75.376 195.721 77.056C192.553 78.736 189.001 79.576 185.065 79.576ZM185.065 68.92C187.417 68.92 189.409 68.056 191.041 66.328C192.721 64.6 193.561 62.128 193.561 58.912C193.561 55.696 192.745 53.224 191.113 51.496C189.529 49.768 187.561 48.904 185.209 48.904C182.809 48.904 180.817 49.768 179.233 51.496C177.649 53.176 176.857 55.648 176.857 58.912C176.857 62.128 177.625 64.6 179.161 66.328C180.745 68.056 182.713 68.92 185.065 68.92ZM227.884 38.248C230.716 38.248 233.188 38.824 235.3 39.976C237.46 41.128 239.116 42.64 240.268 44.512V38.824H252.58V78.928C252.58 82.624 251.836 85.96 250.348 88.936C248.908 91.96 246.676 94.36 243.652 96.136C240.676 97.912 236.956 98.8 232.492 98.8C226.54 98.8 221.716 97.384 218.02 94.552C214.324 91.768 212.212 87.976 211.684 83.176H223.852C224.236 84.712 225.148 85.912 226.588 86.776C228.028 87.688 229.804 88.144 231.916 88.144C234.46 88.144 236.476 87.4 237.964 85.912C239.5 84.472 240.268 82.144 240.268 78.928V73.24C239.068 75.112 237.412 76.648 235.3 77.848C233.188 79 230.716 79.576 227.884 79.576C224.572 79.576 221.572 78.736 218.884 77.056C216.196 75.328 214.06 72.904 212.476 69.784C210.94 66.616 210.172 62.968 210.172 58.84C210.172 54.712 210.94 51.088 212.476 47.968C214.06 44.848 216.196 42.448 218.884 40.768C221.572 39.088 224.572 38.248 227.884 38.248ZM240.268 58.912C240.268 55.84 239.404 53.416 237.676 51.64C235.996 49.864 233.932 48.976 231.484 48.976C229.036 48.976 226.948 49.864 225.22 51.64C223.54 53.368 222.7 55.768 222.7 58.84C222.7 61.912 223.54 64.36 225.22 66.184C226.948 67.96 229.036 68.848 231.484 68.848C233.932 68.848 235.996 67.96 237.676 66.184C239.404 64.408 240.268 61.984 240.268 58.912ZM300.007 44.728C300.007 47.656 299.335 50.344 297.991 52.792C296.647 55.192 294.583 57.136 291.799 58.624C289.015 60.112 285.559 60.856 281.431 60.856H273.799V79H261.487V28.456H281.431C285.463 28.456 288.871 29.152 291.655 30.544C294.439 31.936 296.527 33.856 297.919 36.304C299.311 38.752 300.007 41.56 300.007 44.728ZM280.495 51.064C282.847 51.064 284.599 50.512 285.751 49.408C286.903 48.304 287.479 46.744 287.479 44.728C287.479 42.712 286.903 41.152 285.751 40.048C284.599 38.944 282.847 38.392 280.495 38.392H273.799V51.064H280.495ZM303.969 58.84C303.969 54.712 304.737 51.088 306.273 47.968C307.857 44.848 309.993 42.448 312.681 40.768C315.369 39.088 318.369 38.248 321.681 38.248C324.513 38.248 326.985 38.824 329.097 39.976C331.257 41.128 332.913 42.64 334.065 44.512V38.824H346.377V79H334.065V73.312C332.865 75.184 331.185 76.696 329.025 77.848C326.913 79 324.441 79.576 321.609 79.576C318.345 79.576 315.369 78.736 312.681 77.056C309.993 75.328 307.857 72.904 306.273 69.784C304.737 66.616 303.969 62.968 303.969 58.84ZM334.065 58.912C334.065 55.84 333.201 53.416 331.473 51.64C329.793 49.864 327.729 48.976 325.281 48.976C322.833 48.976 320.745 49.864 319.017 51.64C317.337 53.368 316.497 55.768 316.497 58.84C316.497 61.912 317.337 64.36 319.017 66.184C320.745 67.96 322.833 68.848 325.281 68.848C327.729 68.848 329.793 67.96 331.473 66.184C333.201 64.408 334.065 61.984 334.065 58.912ZM367.596 25.72V79H355.284V25.72H367.596ZM392.863 79.576C389.359 79.576 386.239 78.976 383.503 77.776C380.767 76.576 378.607 74.944 377.023 72.88C375.439 70.768 374.551 68.416 374.359 65.824H386.527C386.671 67.216 387.319 68.344 388.471 69.208C389.623 70.072 391.039 70.504 392.719 70.504C394.255 70.504 395.431 70.216 396.247 69.64C397.111 69.016 397.543 68.224 397.543 67.264C397.543 66.112 396.943 65.272 395.743 64.744C394.543 64.168 392.599 63.544 389.911 62.872C387.031 62.2 384.631 61.504 382.711 60.784C380.791 60.016 379.135 58.84 377.743 57.256C376.351 55.624 375.655 53.44 375.655 50.704C375.655 48.4 376.279 46.312 377.527 44.44C378.823 42.52 380.695 41.008 383.143 39.904C385.639 38.8 388.591 38.248 391.999 38.248C397.039 38.248 400.999 39.496 403.879 41.992C406.807 44.488 408.487 47.8 408.919 51.928H397.543C397.351 50.536 396.727 49.432 395.671 48.616C394.663 47.8 393.319 47.392 391.639 47.392C390.199 47.392 389.095 47.68 388.327 48.256C387.559 48.784 387.175 49.528 387.175 50.488C387.175 51.64 387.775 52.504 388.975 53.08C390.223 53.656 392.143 54.232 394.735 54.808C397.711 55.576 400.135 56.344 402.007 57.112C403.879 57.832 405.511 59.032 406.903 60.712C408.343 62.344 409.087 64.552 409.135 67.336C409.135 69.688 408.463 71.8 407.119 73.672C405.823 75.496 403.927 76.936 401.431 77.992C398.983 79.048 396.127 79.576 392.863 79.576Z" fill="#DDAA61"/>
<path fill-rule="evenodd" clip-rule="evenodd" d="M88.5198 26.8416C85.8559 21.9338 82.0954 17.2471 79.5506 14.7797C73.3352 8.753 67.8815 8.96624 65.183 9.62984C63.7402 9.9847 62.4066 10.6289 61.2581 11.5102C57.0788 8.39556 52.089 6.86963 46.1526 6.86963C40.0819 6.86963 35.0013 8.46532 30.765 11.7236C29.6618 10.9173 28.3977 10.3246 27.0359 9.98985C24.3379 9.32601 18.8833 9.113 12.6688 15.1393C10.1233 17.6071 6.36265 22.294 3.69918 27.2018C-0.295055 34.5619 -1.05906 40.7623 1.4285 45.6308C4.33831 51.3242 8.888 52.8799 12.0535 53.3047C11.5929 55.8924 11.3177 58.7191 11.3177 62.0137C11.3177 68.0947 12.612 73.3766 15.1642 77.7126C17.4306 81.5629 20.6638 84.63 24.774 86.8291C31.9801 90.6846 40.4263 91.1305 46.1526 91.1305C51.8789 91.1305 60.3251 90.6846 67.5312 86.8291C71.6413 84.63 74.8745 81.5627 77.1407 77.7129C79.6934 73.3773 80.9875 68.0954 80.9875 62.0137C80.9875 58.5648 80.6861 55.6288 80.1855 52.9419C83.3502 52.5131 87.8866 50.952 90.7902 45.2705C93.2778 40.4025 92.5138 34.2023 88.5198 26.8416ZM15.3169 41.8086L15.3056 41.8414C14.7717 43.3973 14.2558 44.9006 13.7826 46.4135C10.8908 46.2509 8.61753 45.3352 7.01416 42.1978C5.41036 39.0589 7.31835 34.2634 9.20137 30.7937C11.4987 26.5602 14.8075 22.4389 16.9098 20.4008C20.9924 16.4417 24.1289 16.4718 25.6345 16.8424C25.6716 16.8515 25.7086 16.8611 25.7453 16.8709C21.8019 22.1283 19.4494 28.7556 17.4979 35.1744C16.7477 37.6406 16.0207 39.7588 15.3169 41.8086ZM48.7078 60.9295C47.8313 61.888 46.7804 62.5574 46.1524 62.5574C45.5241 62.5574 44.4734 61.8882 43.5974 60.9297C42.7176 59.9674 42.1035 58.8024 42.1035 58.0962C42.1035 57.4911 42.2734 57.3107 42.6545 57.1353C43.2949 56.8404 44.3737 56.7089 46.1526 56.7089C47.9314 56.7089 49.0103 56.8404 49.6509 57.1353C50.0318 57.3109 50.2017 57.4911 50.2017 58.0962C50.2015 58.8024 49.5871 59.9674 48.7078 60.9295ZM71.7611 73.9038C70.1372 76.6628 67.7694 78.8879 64.7234 80.5175C59.8749 83.1118 54.0843 83.8566 49.354 84.0479V68.8379C51.072 68.0446 52.4243 66.7823 53.2295 65.9017C54.4903 64.5227 56.6049 61.6752 56.6049 58.0962C56.6049 54.7304 54.932 51.9508 52.1297 50.6604C50.6271 49.9684 48.8955 49.6864 46.1526 49.6864C43.4095 49.6864 41.6778 49.9687 40.1754 50.6604C37.3732 51.9506 35.7002 54.7304 35.7002 58.0962C35.7002 61.675 37.8149 64.5227 39.0756 65.9017C39.8804 66.782 41.2327 68.0446 42.951 68.8379V84.0476C38.2207 83.8564 32.4303 83.1116 27.5816 80.5173C24.5358 78.8877 22.168 76.6626 20.5439 73.9035C18.6707 70.7215 17.721 66.7209 17.721 62.0135C17.721 54.7382 19.2263 50.3523 21.3102 44.2814L21.3105 44.2806C22.0347 42.1709 22.7837 39.989 23.5726 37.3958C25.4272 31.2958 27.643 25.0385 31.2675 20.5939C34.9964 16.0215 39.7263 13.8919 46.1526 13.8919C52.5789 13.8919 57.3087 16.0215 61.0376 20.5939C64.6628 25.039 66.8784 31.296 68.7326 37.3958C69.5165 39.9736 70.2646 42.1535 70.9921 44.2733L70.9949 44.2816C73.0786 50.3521 74.584 54.7379 74.584 62.0135C74.5842 66.7219 73.6345 70.7222 71.7611 73.9038ZM85.2044 41.8374C83.5959 44.9847 81.3137 45.8962 78.409 46.0549C77.9664 44.6602 77.4889 43.269 76.996 41.8326L76.9834 41.7959C76.2802 39.7473 75.5534 37.6287 74.8071 35.1747C72.8165 28.6269 70.4088 21.8619 66.3197 16.5549C66.4064 16.5285 66.4946 16.5042 66.584 16.4821C68.0905 16.1123 71.2261 16.0816 75.3092 20.0408C77.4108 22.0784 80.7198 26.2 83.0174 30.4332C84.9004 33.9034 86.8082 38.6987 85.2044 41.8374ZM37.5545 31.0992C35.7863 31.0992 34.3528 32.6712 34.3528 34.6105V39.8936C34.3528 41.8329 35.7863 43.4049 37.5545 43.4049C39.3226 43.4049 40.7561 41.8329 40.7561 39.8936V34.6105C40.7561 32.6712 39.3226 31.0992 37.5545 31.0992ZM51.4626 34.6105C51.4626 32.6712 52.896 31.0992 54.6642 31.0992C56.4326 31.0992 57.8661 32.6712 57.8658 34.6105V39.8936C57.8658 41.8329 56.4324 43.4049 54.6642 43.4049C52.896 43.4049 51.4626 41.8329 51.4626 39.8936V34.6105Z" fill="#DDAA61"/>
</svg>
