<svg width="39" height="34" viewBox="0 0 39 34" fill="none" xmlns="http://www.w3.org/2000/svg">
<path fill-rule="evenodd" clip-rule="evenodd" d="M37.4357 8.05886C36.3091 6.07851 34.7188 4.1874 33.6425 3.19179C31.014 0.759955 28.7076 0.845999 27.5664 1.11377C26.9562 1.25696 26.3922 1.51689 25.9065 1.8725C24.1391 0.615728 22.0288 0 19.5183 0C16.951 0 14.8023 0.643874 13.0108 1.95864C12.5442 1.63325 12.0096 1.3941 11.4337 1.25904C10.2927 0.991172 7.98589 0.90522 5.35771 3.33687C4.28124 4.33267 2.69081 6.22387 1.56441 8.20423C-0.124781 11.1741 -0.447886 13.676 0.604124 15.6405C1.8347 17.9378 3.7588 18.5655 5.09753 18.737C4.90271 19.7811 4.78634 20.9217 4.78634 22.2511C4.78634 24.7049 5.3337 26.8362 6.41306 28.5858C7.37155 30.1394 8.7389 31.377 10.4771 32.2644C13.5246 33.8201 17.0966 34 19.5183 34C21.94 34 25.5119 33.8201 28.5594 32.2644C30.2977 31.377 31.665 30.1393 32.6234 28.5859C33.7029 26.8364 34.2502 24.7051 34.2502 22.2511C34.2502 20.8595 34.1227 19.6748 33.911 18.5906C35.2494 18.4175 37.1679 17.7876 38.3959 15.4951C39.4479 13.5308 39.1248 11.029 37.4357 8.05886ZM6.47761 14.0982L6.47286 14.1114C6.24705 14.7392 6.02888 15.3458 5.82878 15.9563C4.60579 15.8907 3.64442 15.5212 2.96634 14.2552C2.28808 12.9887 3.09499 11.0536 3.89133 9.65358C4.8629 7.94533 6.26221 6.28233 7.15127 5.45994C8.87784 3.86239 10.2043 3.87458 10.841 4.0241C10.8567 4.02778 10.8723 4.03165 10.8879 4.03562C9.22017 6.15699 8.22531 8.83119 7.39998 11.4212C7.08275 12.4164 6.77526 13.2711 6.47761 14.0982ZM20.5989 21.8136C20.2282 22.2004 19.7838 22.4705 19.5182 22.4705C19.2525 22.4705 18.8081 22.2005 18.4376 21.8137C18.0656 21.4254 17.8059 20.9553 17.8059 20.6704C17.8059 20.4262 17.8777 20.3534 18.0389 20.2827C18.3097 20.1636 18.766 20.1106 19.5183 20.1106C20.2706 20.1106 20.7268 20.1636 20.9978 20.2827C21.1588 20.3535 21.2307 20.4262 21.2307 20.6704C21.2306 20.9553 20.9708 21.4254 20.5989 21.8136ZM30.3483 27.0489C29.6616 28.1622 28.6602 29.06 27.372 29.7176C25.3215 30.7644 22.8726 31.0649 20.8722 31.1421V25.0047C21.5987 24.6846 22.1706 24.1753 22.5112 23.8199C23.0444 23.2635 23.9387 22.1145 23.9387 20.6704C23.9387 19.3123 23.2311 18.1907 22.0461 17.6699C21.4106 17.3907 20.6783 17.2769 19.5183 17.2769C18.3582 17.2769 17.6259 17.3908 16.9905 17.6699C15.8054 18.1906 15.0979 19.3123 15.0979 20.6704C15.0979 22.1144 15.9922 23.2635 16.5254 23.8199C16.8657 24.1752 17.4376 24.6846 18.1643 25.0047V31.142C16.1638 31.0648 13.715 30.7643 11.6644 29.7175C10.3764 29.0599 9.375 28.1621 8.68816 27.0488C7.89597 25.7648 7.49432 24.1505 7.49432 22.251C7.49432 19.3154 8.13096 17.5456 9.01226 15.096L9.01238 15.0956L9.0124 15.0956C9.31867 14.2443 9.63541 13.3639 9.96903 12.3176C10.7534 9.85618 11.6904 7.33131 13.2233 5.53787C14.8003 3.69286 16.8005 2.83354 19.5183 2.83354C22.236 2.83354 24.2363 3.69286 25.8133 5.53787C27.3464 7.3315 28.2834 9.85627 29.0675 12.3176C29.399 13.3576 29.7154 14.2371 30.023 15.0924L30.023 15.0925L30.0243 15.0961C30.9055 17.5456 31.5421 19.3153 31.5421 22.251C31.5422 24.1509 31.1406 25.7651 30.3483 27.0489ZM36.0336 14.1098C35.3533 15.3798 34.3882 15.7476 33.1597 15.8116C32.9727 15.2493 32.771 14.6884 32.5627 14.1093L32.5624 14.1086L32.5569 14.0931C32.2595 13.2664 31.9521 12.4116 31.6365 11.4213C30.7946 8.77925 29.7764 6.04951 28.0471 3.90811C28.0838 3.89744 28.1211 3.88761 28.1589 3.87874C28.796 3.7295 30.1221 3.71713 31.8488 5.31468C32.7376 6.13688 34.137 7.79997 35.1087 9.50812C35.905 10.9084 36.7118 12.8433 36.0336 14.1098ZM15.8822 9.77662C15.1344 9.77662 14.5282 10.411 14.5282 11.1935V13.3252C14.5282 14.1078 15.1344 14.7421 15.8822 14.7421C16.6299 14.7421 17.2361 14.1078 17.2361 13.3252V11.1935C17.2361 10.411 16.6299 9.77662 15.8822 9.77662ZM21.7639 11.1935C21.7639 10.411 22.3701 9.77662 23.1179 9.77662C23.8657 9.77662 24.472 10.411 24.4719 11.1935V13.3252C24.4719 14.1078 23.8657 14.7421 23.1179 14.7421C22.3701 14.7421 21.7639 14.1078 21.7639 13.3252V11.1935Z" fill="#E0962D"/>
</svg>
